<?xml version="1.0" encoding="UTF-8"?>
<!DOCTYPE svg PUBLIC "-//W3C//DTD SVG 1.1//EN" "http://www.w3.org/Graphics/SVG/1.1/DTD/svg11.dtd">
<svg xmlns="http://www.w3.org/2000/svg" version="1.1" width="512px" height="512px" style="shape-rendering:geometricPrecision; text-rendering:geometricPrecision; image-rendering:optimizeQuality; fill-rule:evenodd; clip-rule:evenodd" xmlns:xlink="http://www.w3.org/1999/xlink">
<g><path style="opacity:0.996" fill="#000000" d="M 57.5,-0.5 C 104.167,-0.5 150.833,-0.5 197.5,-0.5C 201.811,1.6467 204.978,4.98004 207,9.5C 207.5,19.4944 207.666,29.4944 207.5,39.5C 154.167,39.5 100.833,39.5 47.5,39.5C 47.3335,29.4944 47.5002,19.4944 48,9.5C 50.0223,4.98004 53.189,1.6467 57.5,-0.5 Z"/></g>
<g><path style="opacity:0.993" fill="#000000" d="M 307.5,-0.5 C 342.167,-0.5 376.833,-0.5 411.5,-0.5C 413.144,0.316435 414.31,1.64977 415,3.5C 415.499,7.48617 415.666,11.4862 415.5,15.5C 378.167,15.5 340.833,15.5 303.5,15.5C 303.334,11.4862 303.501,7.48617 304,3.5C 304.69,1.64977 305.856,0.316435 307.5,-0.5 Z"/></g>
<g><path style="opacity:0.986" fill="#000000" d="M 307.5,31.5 C 342.168,31.3333 376.835,31.5 411.5,32C 414.516,33.5286 415.849,36.0286 415.5,39.5C 415.849,42.9714 414.516,45.4714 411.5,47C 376.833,47.6667 342.167,47.6667 307.5,47C 304.484,45.4714 303.151,42.9714 303.5,39.5C 303.282,35.9342 304.616,33.2675 307.5,31.5 Z"/></g>
<g><path style="opacity:0.99" fill="#000000" d="M -0.5,143.5 C -0.5,142.833 -0.5,142.167 -0.5,141.5C 15.5194,113.303 31.1861,84.8028 46.5,56C 94.8368,55.1667 143.17,55.3334 191.5,56.5C 175.706,85.2534 160.04,114.087 144.5,143C 96.1678,143.5 47.8345,143.667 -0.5,143.5 Z"/></g>
<g><path style="opacity:0.986" fill="#000000" d="M 206.5,55.5 C 207.496,55.4142 208.329,55.7476 209,56.5C 224.667,85.1667 240.333,113.833 256,142.5C 256.667,165.5 256.667,188.5 256,211.5C 228,286.833 200,362.167 172,437.5C 169.159,439.504 165.993,440.004 162.5,439C 161.333,438.5 160.5,437.667 160,436.5C 159.333,338.167 159.333,239.833 160,141.5C 175.779,112.939 191.279,84.2722 206.5,55.5 Z"/></g>
<g><path style="opacity:0.989" fill="#000000" d="M 303.5,63.5 C 340.835,63.3333 378.168,63.5 415.5,64C 428.61,69.0461 433.777,78.5461 431,92.5C 425.809,101.363 419.476,109.363 412,116.5C 409.924,119.217 409.257,122.217 410,125.5C 428.269,139.697 440.269,158.03 446,180.5C 447.131,201.298 447.631,222.132 447.5,243C 447.333,261.833 447.167,280.667 447,299.5C 446.626,300.416 446.126,301.25 445.5,302C 429.259,303.636 412.925,303.97 396.5,303C 395.667,302.167 394.833,301.333 394,300.5C 381.196,267.754 368.196,235.087 355,202.5C 350.131,195.982 343.631,192.482 335.5,192C 315.833,191.667 296.167,191.333 276.5,191C 272.87,187.95 271.703,184.117 273,179.5C 278.599,157.234 290.599,139.234 309,125.5C 309.841,121.88 309.174,118.546 307,115.5C 299.473,108.755 293.14,101.088 288,92.5C 285.351,78.4554 290.518,68.7887 303.5,63.5 Z"/></g>
<g><path style="opacity:1" fill="#000000" d="M -0.5,159.5 C 47.5,159.5 95.5,159.5 143.5,159.5C 143.5,175.5 143.5,191.5 143.5,207.5C 95.5,207.5 47.5,207.5 -0.5,207.5C -0.5,191.5 -0.5,175.5 -0.5,159.5 Z"/></g>
<g><path style="opacity:0.967" fill="#000000" d="M 296.5,511.5 C 284.833,511.5 273.167,511.5 261.5,511.5C 228.459,506.73 199.959,492.73 176,469.5C 175.233,465.406 175.566,461.406 177,457.5C 180,449.833 183,442.167 186,434.5C 186.833,433.667 187.667,432.833 188.5,432C 201.771,430.74 207.604,423.573 206,410.5C 204.729,407.567 203.062,404.901 201,402.5C 200.333,400.167 200.333,397.833 201,395.5C 209.723,372.388 218.723,349.388 228,326.5C 229.853,324.408 232.186,323.408 235,323.5C 239.075,324.534 243.075,325.867 247,327.5C 257.719,324.07 262.386,316.736 261,305.5C 259.939,302.438 258.106,299.938 255.5,298C 251.702,297.072 248.202,295.572 245,293.5C 243.517,290.298 243.183,286.964 244,283.5C 253.446,258.491 263.28,233.658 273.5,209C 277.5,207 281.5,207 285.5,209C 298.101,240.206 310.435,271.54 322.5,303C 322.355,303.772 322.022,304.439 321.5,305C 304.991,312.186 300.491,324.02 308,340.5C 311.575,345.415 316.242,348.748 322,350.5C 326.53,399.498 331.03,448.498 335.5,497.5C 335.351,499.32 334.684,500.82 333.5,502C 321.315,506.295 308.982,509.462 296.5,511.5 Z M 265.5,344.5 C 279.594,342.625 289.094,348.292 294,361.5C 296.366,375.606 290.866,385.106 277.5,390C 263.394,392.366 253.894,386.866 249,373.5C 246.759,359.305 252.259,349.638 265.5,344.5 Z M 285.5,408.5 C 303.648,407.148 311.815,415.481 310,433.5C 303.909,446.125 294.409,449.625 281.5,444C 271.712,436.175 269.878,426.675 276,415.5C 278.79,412.535 281.957,410.202 285.5,408.5 Z M 225.5,432.5 C 239.594,430.625 249.094,436.292 254,449.5C 256.366,463.606 250.866,473.106 237.5,478C 223.394,480.366 213.894,474.866 209,461.5C 206.759,447.305 212.259,437.638 225.5,432.5 Z"/></g>
<g><path style="opacity:0.957" fill="#000000" d="M 301.5,208.5 C 313.993,207.34 326.66,207.173 339.5,208C 340.416,208.374 341.25,208.874 342,209.5C 347.956,222.701 353.122,236.201 357.5,250C 357.375,251.627 356.875,253.127 356,254.5C 352,257.167 348.667,260.5 346,264.5C 342.726,272.731 344.56,279.564 351.5,285C 358.192,285.821 364.858,286.488 371.5,287C 374.494,291.824 376.827,296.991 378.5,302.5C 364.937,303.822 351.437,303.822 338,302.5C 326.1,270.949 313.933,239.616 301.5,208.5 Z"/></g>
<g><path style="opacity:0.989" fill="#000000" d="M -0.5,223.5 C 47.5,223.5 95.5,223.5 143.5,223.5C 143.5,287.5 143.5,351.5 143.5,415.5C 95.5,415.5 47.5,415.5 -0.5,415.5C -0.5,351.5 -0.5,287.5 -0.5,223.5 Z M 69.5,256.5 C 73.7462,257.044 77.2462,259.044 80,262.5C 96.835,282.025 109.502,304.025 118,328.5C 120.39,351.221 111.223,367.388 90.5,377C 70.8696,384.727 52.8696,382.06 36.5,369C 24.39,355.045 21.2233,339.212 27,321.5C 37.212,297.03 51.3786,275.363 69.5,256.5 Z"/></g>
<g><path style="opacity:0.992" fill="#000000" d="M 511.5,323.5 C 511.5,326.167 511.5,328.833 511.5,331.5C 510.684,333.144 509.35,334.31 507.5,335C 503.514,335.499 499.514,335.666 495.5,335.5C 490.124,391.798 484.958,448.132 480,504.5C 479.47,507.585 477.97,509.918 475.5,511.5C 435.5,511.5 395.5,511.5 355.5,511.5C 353.03,509.918 351.53,507.585 351,504.5C 346.042,448.132 340.876,391.798 335.5,335.5C 331.486,335.666 327.486,335.499 323.5,335C 322.584,334.626 321.75,334.126 321,333.5C 319.517,330.298 319.183,326.964 320,323.5C 320.5,321.667 321.667,320.5 323.5,320C 384.833,319.333 446.167,319.333 507.5,320C 509.35,320.69 510.684,321.856 511.5,323.5 Z"/></g>
<g><path style="opacity:0.999" fill="#000000" d="M -0.5,431.5 C 47.5,431.5 95.5,431.5 143.5,431.5C 143.5,458.167 143.5,484.833 143.5,511.5C 98.8333,511.5 54.1667,511.5 9.5,511.5C 5.16667,509.167 1.83333,505.833 -0.5,501.5C -0.5,478.167 -0.5,454.833 -0.5,431.5 Z"/></g>
</svg>
